<svg xmlns="http://www.w3.org/2000/svg" width="912" height="416" viewBox="0 0 912 416">
<rect width="912" height="416" fill="#0b1020"/>
<text x="36" y="36" font-family="DejaVu Sans, Arial, sans-serif" font-size="20" font-weight="700" fill="#e5e7eb">Lily58 — Colemak-DH</text>
<text x="876" y="36" text-anchor="end" font-family="DejaVu Sans, Arial, sans-serif" font-size="12" fill="#9ca3af">matches keymap.c</text>
<rect x="36" y="64" width="56" height="56" rx="8" fill="#7f1d1d" stroke="#4b5563" stroke-width="1.5"/>
  <text x="64.0" y="97.0" text-anchor="middle" font-family="DejaVu Sans, Arial, sans-serif" font-size="13" font-weight="700" fill="#fecaca">ESC</text>
<rect x="100" y="64" width="56" height="56" rx="8" fill="#111827" stroke="#4b5563" stroke-width="1.5"/>
  <text x="128.0" y="97.0" text-anchor="middle" font-family="DejaVu Sans, Arial, sans-serif" font-size="15" font-weight="700" fill="#93c5fd">1</text>
<rect x="164" y="64" width="56" height="56" rx="8" fill="#111827" stroke="#4b5563" stroke-width="1.5"/>
  <text x="192.0" y="97.0" text-anchor="middle" font-family="DejaVu Sans, Arial, sans-serif" font-size="15" font-weight="700" fill="#93c5fd">2</text>
<rect x="228" y="64" width="56" height="56" rx="8" fill="#111827" stroke="#4b5563" stroke-width="1.5"/>
  <text x="256.0" y="97.0" text-anchor="middle" font-family="DejaVu Sans, Arial, sans-serif" font-size="15" font-weight="700" fill="#93c5fd">3</text>
<rect x="292" y="64" width="56" height="56" rx="8" fill="#111827" stroke="#4b5563" stroke-width="1.5"/>
  <text x="320.0" y="97.0" text-anchor="middle" font-family="DejaVu Sans, Arial, sans-serif" font-size="15" font-weight="700" fill="#93c5fd">4</text>
<rect x="356" y="64" width="56" height="56" rx="8" fill="#111827" stroke="#4b5563" stroke-width="1.5"/>
  <text x="384.0" y="97.0" text-anchor="middle" font-family="DejaVu Sans, Arial, sans-serif" font-size="15" font-weight="700" fill="#93c5fd">5</text>
<rect x="36" y="138" width="56" height="56" rx="8" fill="#374151" stroke="#4b5563" stroke-width="1.5"/>
  <text x="64.0" y="171.0" text-anchor="middle" font-family="DejaVu Sans, Arial, sans-serif" font-size="13" font-weight="700" fill="#d1d5db">TAB</text>
<rect x="100" y="138" width="56" height="56" rx="8" fill="#1f2937" stroke="#4b5563" stroke-width="1.5"/>
  <text x="128.0" y="171.0" text-anchor="middle" font-family="DejaVu Sans, Arial, sans-serif" font-size="15" font-weight="700" fill="#f9fafb">Q</text>
<rect x="164" y="138" width="56" height="56" rx="8" fill="#1f2937" stroke="#4b5563" stroke-width="1.5"/>
  <text x="192.0" y="171.0" text-anchor="middle" font-family="DejaVu Sans, Arial, sans-serif" font-size="15" font-weight="700" fill="#f9fafb">W</text>
<rect x="228" y="138" width="56" height="56" rx="8" fill="#1f2937" stroke="#4b5563" stroke-width="1.5"/>
  <text x="256.0" y="171.0" text-anchor="middle" font-family="DejaVu Sans, Arial, sans-serif" font-size="15" font-weight="700" fill="#f9fafb">F</text>
<rect x="292" y="138" width="56" height="56" rx="8" fill="#1f2937" stroke="#4b5563" stroke-width="1.5"/>
  <text x="320.0" y="171.0" text-anchor="middle" font-family="DejaVu Sans, Arial, sans-serif" font-size="15" font-weight="700" fill="#f9fafb">P</text>
<rect x="356" y="138" width="56" height="56" rx="8" fill="#1f2937" stroke="#4b5563" stroke-width="1.5"/>
  <text x="384.0" y="171.0" text-anchor="middle" font-family="DejaVu Sans, Arial, sans-serif" font-size="15" font-weight="700" fill="#f9fafb">B</text>
<rect x="36" y="198" width="56" height="56" rx="8" fill="#374151" stroke="#4b5563" stroke-width="1.5"/>
  <text x="64.0" y="231.0" text-anchor="middle" font-family="DejaVu Sans, Arial, sans-serif" font-size="13" font-weight="700" fill="#d1d5db">CTRL</text>
<rect x="100" y="198" width="56" height="56" rx="8" fill="#1f2937" stroke="#4b5563" stroke-width="1.5"/>
  <text x="128.0" y="231.0" text-anchor="middle" font-family="DejaVu Sans, Arial, sans-serif" font-size="15" font-weight="700" fill="#f9fafb">A</text>
<rect x="164" y="198" width="56" height="56" rx="8" fill="#1f2937" stroke="#4b5563" stroke-width="1.5"/>
  <text x="192.0" y="231.0" text-anchor="middle" font-family="DejaVu Sans, Arial, sans-serif" font-size="15" font-weight="700" fill="#f9fafb">R</text>
<rect x="228" y="198" width="56" height="56" rx="8" fill="#1f2937" stroke="#4b5563" stroke-width="1.5"/>
  <text x="256.0" y="231.0" text-anchor="middle" font-family="DejaVu Sans, Arial, sans-serif" font-size="15" font-weight="700" fill="#f9fafb">S</text>
<rect x="292" y="198" width="56" height="56" rx="8" fill="#1f2937" stroke="#4b5563" stroke-width="1.5"/>
  <text x="320.0" y="231.0" text-anchor="middle" font-family="DejaVu Sans, Arial, sans-serif" font-size="15" font-weight="700" fill="#f9fafb">T</text>
<rect x="356" y="198" width="56" height="56" rx="8" fill="#1f2937" stroke="#4b5563" stroke-width="1.5"/>
  <text x="384.0" y="231.0" text-anchor="middle" font-family="DejaVu Sans, Arial, sans-serif" font-size="15" font-weight="700" fill="#f9fafb">G</text>
<rect x="36" y="256" width="56" height="56" rx="8" fill="#374151" stroke="#4b5563" stroke-width="1.5"/>
  <text x="64.0" y="289.0" text-anchor="middle" font-family="DejaVu Sans, Arial, sans-serif" font-size="13" font-weight="700" fill="#d1d5db">SFT</text>
<rect x="100" y="256" width="56" height="56" rx="8" fill="#1f2937" stroke="#4b5563" stroke-width="1.5"/>
  <text x="128.0" y="289.0" text-anchor="middle" font-family="DejaVu Sans, Arial, sans-serif" font-size="15" font-weight="700" fill="#f9fafb">Z</text>
<rect x="164" y="256" width="56" height="56" rx="8" fill="#1f2937" stroke="#4b5563" stroke-width="1.5"/>
  <text x="192.0" y="289.0" text-anchor="middle" font-family="DejaVu Sans, Arial, sans-serif" font-size="15" font-weight="700" fill="#f9fafb">X</text>
<rect x="228" y="256" width="56" height="56" rx="8" fill="#1f2937" stroke="#4b5563" stroke-width="1.5"/>
  <text x="256.0" y="289.0" text-anchor="middle" font-family="DejaVu Sans, Arial, sans-serif" font-size="15" font-weight="700" fill="#f9fafb">C</text>
<rect x="292" y="256" width="56" height="56" rx="8" fill="#1f2937" stroke="#4b5563" stroke-width="1.5"/>
  <text x="320.0" y="289.0" text-anchor="middle" font-family="DejaVu Sans, Arial, sans-serif" font-size="15" font-weight="700" fill="#f9fafb">D</text>
<rect x="356" y="256" width="56" height="56" rx="8" fill="#1f2937" stroke="#4b5563" stroke-width="1.5"/>
  <text x="384.0" y="289.0" text-anchor="middle" font-family="DejaVu Sans, Arial, sans-serif" font-size="15" font-weight="700" fill="#f9fafb">V</text>
<rect x="500" y="64" width="56" height="56" rx="8" fill="#111827" stroke="#4b5563" stroke-width="1.5"/>
  <text x="528.0" y="97.0" text-anchor="middle" font-family="DejaVu Sans, Arial, sans-serif" font-size="15" font-weight="700" fill="#93c5fd">6</text>
<rect x="564" y="64" width="56" height="56" rx="8" fill="#111827" stroke="#4b5563" stroke-width="1.5"/>
  <text x="592.0" y="97.0" text-anchor="middle" font-family="DejaVu Sans, Arial, sans-serif" font-size="15" font-weight="700" fill="#93c5fd">7</text>
<rect x="628" y="64" width="56" height="56" rx="8" fill="#111827" stroke="#4b5563" stroke-width="1.5"/>
  <text x="656.0" y="97.0" text-anchor="middle" font-family="DejaVu Sans, Arial, sans-serif" font-size="15" font-weight="700" fill="#93c5fd">8</text>
<rect x="692" y="64" width="56" height="56" rx="8" fill="#111827" stroke="#4b5563" stroke-width="1.5"/>
  <text x="720.0" y="97.0" text-anchor="middle" font-family="DejaVu Sans, Arial, sans-serif" font-size="15" font-weight="700" fill="#93c5fd">9</text>
<rect x="756" y="64" width="56" height="56" rx="8" fill="#111827" stroke="#4b5563" stroke-width="1.5"/>
  <text x="784.0" y="97.0" text-anchor="middle" font-family="DejaVu Sans, Arial, sans-serif" font-size="15" font-weight="700" fill="#93c5fd">0</text>
<rect x="820" y="64" width="56" height="56" rx="8" fill="#111827" stroke="#4b5563" stroke-width="1.5"/>
  <text x="848.0" y="97.0" text-anchor="middle" font-family="DejaVu Sans, Arial, sans-serif" font-size="15" font-weight="700" fill="#93c5fd">`</text>
<rect x="500" y="138" width="56" height="56" rx="8" fill="#1f2937" stroke="#4b5563" stroke-width="1.5"/>
  <text x="528.0" y="171.0" text-anchor="middle" font-family="DejaVu Sans, Arial, sans-serif" font-size="15" font-weight="700" fill="#f9fafb">J</text>
<rect x="564" y="138" width="56" height="56" rx="8" fill="#1f2937" stroke="#4b5563" stroke-width="1.5"/>
  <text x="592.0" y="171.0" text-anchor="middle" font-family="DejaVu Sans, Arial, sans-serif" font-size="15" font-weight="700" fill="#f9fafb">L</text>
<rect x="628" y="138" width="56" height="56" rx="8" fill="#1f2937" stroke="#4b5563" stroke-width="1.5"/>
  <text x="656.0" y="171.0" text-anchor="middle" font-family="DejaVu Sans, Arial, sans-serif" font-size="15" font-weight="700" fill="#f9fafb">U</text>
<rect x="692" y="138" width="56" height="56" rx="8" fill="#1f2937" stroke="#4b5563" stroke-width="1.5"/>
  <text x="720.0" y="171.0" text-anchor="middle" font-family="DejaVu Sans, Arial, sans-serif" font-size="15" font-weight="700" fill="#f9fafb">Y</text>
<rect x="756" y="138" width="56" height="56" rx="8" fill="#1f2937" stroke="#4b5563" stroke-width="1.5"/>
  <text x="784.0" y="171.0" text-anchor="middle" font-family="DejaVu Sans, Arial, sans-serif" font-size="15" font-weight="700" fill="#f9fafb">;</text>
<rect x="820" y="138" width="56" height="56" rx="8" fill="#111827" stroke="#4b5563" stroke-width="1.5"/>
  <text x="848.0" y="171.0" text-anchor="middle" font-family="DejaVu Sans, Arial, sans-serif" font-size="15" font-weight="700" fill="#93c5fd">-</text>
<rect x="500" y="198" width="56" height="56" rx="8" fill="#1f2937" stroke="#4b5563" stroke-width="1.5"/>
  <text x="528.0" y="231.0" text-anchor="middle" font-family="DejaVu Sans, Arial, sans-serif" font-size="15" font-weight="700" fill="#f9fafb">M</text>
<rect x="564" y="198" width="56" height="56" rx="8" fill="#1f2937" stroke="#4b5563" stroke-width="1.5"/>
  <text x="592.0" y="231.0" text-anchor="middle" font-family="DejaVu Sans, Arial, sans-serif" font-size="15" font-weight="700" fill="#f9fafb">N</text>
<rect x="628" y="198" width="56" height="56" rx="8" fill="#1f2937" stroke="#4b5563" stroke-width="1.5"/>
  <text x="656.0" y="231.0" text-anchor="middle" font-family="DejaVu Sans, Arial, sans-serif" font-size="15" font-weight="700" fill="#f9fafb">E</text>
<rect x="692" y="198" width="56" height="56" rx="8" fill="#1f2937" stroke="#4b5563" stroke-width="1.5"/>
  <text x="720.0" y="231.0" text-anchor="middle" font-family="DejaVu Sans, Arial, sans-serif" font-size="15" font-weight="700" fill="#f9fafb">I</text>
<rect x="756" y="198" width="56" height="56" rx="8" fill="#1f2937" stroke="#4b5563" stroke-width="1.5"/>
  <text x="784.0" y="231.0" text-anchor="middle" font-family="DejaVu Sans, Arial, sans-serif" font-size="15" font-weight="700" fill="#f9fafb">O</text>
<rect x="820" y="198" width="56" height="56" rx="8" fill="#1f2937" stroke="#4b5563" stroke-width="1.5"/>
  <text x="848.0" y="231.0" text-anchor="middle" font-family="DejaVu Sans, Arial, sans-serif" font-size="15" font-weight="700" fill="#f9fafb">'</text>
<rect x="500" y="256" width="56" height="56" rx="8" fill="#1f2937" stroke="#4b5563" stroke-width="1.5"/>
  <text x="528.0" y="289.0" text-anchor="middle" font-family="DejaVu Sans, Arial, sans-serif" font-size="15" font-weight="700" fill="#f9fafb">K</text>
<rect x="564" y="256" width="56" height="56" rx="8" fill="#1f2937" stroke="#4b5563" stroke-width="1.5"/>
  <text x="592.0" y="289.0" text-anchor="middle" font-family="DejaVu Sans, Arial, sans-serif" font-size="15" font-weight="700" fill="#f9fafb">H</text>
<rect x="628" y="256" width="56" height="56" rx="8" fill="#1f2937" stroke="#4b5563" stroke-width="1.5"/>
  <text x="656.0" y="289.0" text-anchor="middle" font-family="DejaVu Sans, Arial, sans-serif" font-size="15" font-weight="700" fill="#f9fafb">,</text>
<rect x="692" y="256" width="56" height="56" rx="8" fill="#1f2937" stroke="#4b5563" stroke-width="1.5"/>
  <text x="720.0" y="289.0" text-anchor="middle" font-family="DejaVu Sans, Arial, sans-serif" font-size="15" font-weight="700" fill="#f9fafb">.</text>
<rect x="756" y="256" width="56" height="56" rx="8" fill="#1f2937" stroke="#4b5563" stroke-width="1.5"/>
  <text x="784.0" y="289.0" text-anchor="middle" font-family="DejaVu Sans, Arial, sans-serif" font-size="15" font-weight="700" fill="#f9fafb">/</text>
<rect x="820" y="256" width="56" height="56" rx="8" fill="#374151" stroke="#4b5563" stroke-width="1.5"/>
  <text x="848.0" y="289.0" text-anchor="middle" font-family="DejaVu Sans, Arial, sans-serif" font-size="13" font-weight="700" fill="#d1d5db">SFT</text>
<rect x="418" y="256" width="36" height="56" rx="8" fill="#111827" stroke="#4b5563" stroke-width="1.5"/>
  <text x="436.0" y="289.0" text-anchor="middle" font-family="DejaVu Sans, Arial, sans-serif" font-size="15" font-weight="700" fill="#93c5fd">[</text>
<rect x="458" y="256" width="36" height="56" rx="8" fill="#111827" stroke="#4b5563" stroke-width="1.5"/>
  <text x="476.0" y="289.0" text-anchor="middle" font-family="DejaVu Sans, Arial, sans-serif" font-size="15" font-weight="700" fill="#93c5fd">]</text>
<rect x="124" y="330" width="62" height="56" rx="8" fill="#374151" stroke="#4b5563" stroke-width="1.5"/>
  <text x="155.0" y="363.0" text-anchor="middle" font-family="DejaVu Sans, Arial, sans-serif" font-size="13" font-weight="700" fill="#d1d5db">ALT</text>
<rect x="194" y="330" width="62" height="56" rx="8" fill="#374151" stroke="#4b5563" stroke-width="1.5"/>
  <text x="225.0" y="363.0" text-anchor="middle" font-family="DejaVu Sans, Arial, sans-serif" font-size="13" font-weight="700" fill="#d1d5db">GUI</text>
<rect x="264" y="330" width="62" height="56" rx="8" fill="#1d4ed8" stroke="#4b5563" stroke-width="1.5"/>
  <text x="295.0" y="363.0" text-anchor="middle" font-family="DejaVu Sans, Arial, sans-serif" font-size="11" font-weight="700" fill="#bfdbfe">LOWER</text>
<rect x="334" y="330" width="78" height="56" rx="8" fill="#065f46" stroke="#4b5563" stroke-width="1.5"/>
  <text x="373.0" y="363.0" text-anchor="middle" font-family="DejaVu Sans, Arial, sans-serif" font-size="13" font-weight="700" fill="#a7f3d0">SPC</text>
<rect x="500" y="330" width="78" height="56" rx="8" fill="#065f46" stroke="#4b5563" stroke-width="1.5"/>
  <text x="539.0" y="363.0" text-anchor="middle" font-family="DejaVu Sans, Arial, sans-serif" font-size="13" font-weight="700" fill="#a7f3d0">ENT</text>
<rect x="586" y="330" width="62" height="56" rx="8" fill="#7c3aed" stroke="#4b5563" stroke-width="1.5"/>
  <text x="617.0" y="363.0" text-anchor="middle" font-family="DejaVu Sans, Arial, sans-serif" font-size="11" font-weight="700" fill="#ddd6fe">RAISE</text>
<rect x="656" y="330" width="62" height="56" rx="8" fill="#7f1d1d" stroke="#4b5563" stroke-width="1.5"/>
  <text x="687.0" y="363.0" text-anchor="middle" font-family="DejaVu Sans, Arial, sans-serif" font-size="13" font-weight="700" fill="#fecaca">BSPC</text>
<rect x="726" y="330" width="62" height="56" rx="8" fill="#374151" stroke="#4b5563" stroke-width="1.5"/>
  <text x="757.0" y="363.0" text-anchor="middle" font-family="DejaVu Sans, Arial, sans-serif" font-size="13" font-weight="700" fill="#d1d5db">GUI</text>
</svg>
